Patient4_TMGait_0pt7_02_left_42_EMG.mot
version=1
nRows=30
nColumns=33
inDegrees=no
endheader
time	1LAddLong	2LGlutMax	3LGlutMed	4LIliopsoas	5LSemiMemb	6LBicFemLong	7LRecFem	8LVastMed	9LVastLat	10LGasMed	11LTibAnt	12lTibPost	13LPeroneusLong	14LSol	15LExtDigLong	16LFlexDigLong	17RAddLong	18RGlutMax	19RGlutMed	20RIliopsoas	21RSemiMemb	22RBicFemLong	23RRecFem	24RVastMed	25RVastLat	26RGasMed	27RTibAnt	28RTibPost	29RPeroneusLong	30RSol	31RExtDigLong	32RFlexDigLong
48.935	0.027313	-0.26184	0.13077	0.011749	0.025024	-0.11246	-0.28488	0.005646	-0.010223	-0.079803	0.011902	0.039215	-0.00061	0.31754	-0.01709	0.3833	-0.032501	-0.33798	0.2002	-0.11688	-0.06012	-0.13596	-0.10803	-0.36057	-0.16602	0.016785	-0.33249	-0.039825	0.12054	-0.065155	-0.001831	0.009918
48.936	0.018921	-0.24948	0.12589	0.009308	0.002747	-0.088043	-0.28427	0.006866	-0.010834	-0.095367	-0.007629	0.019073	0.21103	0.45593	-0.03418	0.45532	0.00412	-0.33829	0.18249	0.061646	-0.103	-0.024719	-0.011597	-0.25971	-0.27329	0.015411	-0.39658	-0.047913	0.065308	0.054932	-0.003815	-0.00061
48.937	0.020599	-0.29343	0.094757	0.00946	0.007477	-0.055847	-0.26535	0.006409	-0.020599	0.047302	-0.008698	-0.019379	0.26306	0.45639	-0.037384	-0.39475	0.029755	-0.34821	0.20294	0.32928	-0.036163	-0.10101	0.048218	-0.22018	-0.37155	0.015869	-0.37231	-0.043488	0.14465	0.041809	-0.00473	0.004272
48.938	0.024261	-0.28564	0.068359	0.024719	0.00412	-0.070953	-0.28275	0.009155	-0.011902	0.26581	0.001068	-0.005035	0.20126	0.36423	-0.097046	-0.52521	0.031281	-0.25894	0.23041	0.31204	-0.043793	-0.25742	0.19714	-0.030365	-0.39429	0.022736	-0.31281	-0.028076	0.1973	0.027313	-0.005798	0.006561
48.939	0.014954	-0.31174	0.058289	0.02533	0.007019	-0.045319	-0.31342	0.00885	-0.019836	0.66009	0.016327	0.011597	0.090485	0.43747	-0.040588	0.66864	0.001526	-0.19943	0.3537	0.18494	-0.10178	-0.28976	0.34546	-0.13687	-0.49469	0.03067	-0.054932	-0.013275	0.15961	0.022736	-0.00824	0.016632
48.94	0.022736	-0.32654	0.009766	0.022125	0.001678	-0.000916	-0.30838	0.007324	-0.019531	0.77927	0.012054	0.050354	0.069733	0.59341	0.041199	0.007477	-0.045166	-0.26703	0.29465	0.15381	-0.067139	-0.22369	0.34012	-0.1886	-0.54398	0.014954	0.075531	-0.001526	0.083313	-0.012665	0.000305	0.004578
48.941	0.024567	-0.3273	-0.011902	0.018158	0.024719	0.019226	-0.29892	0.010681	-0.023804	-0.2092	-0.01297	0.055847	-0.041199	0.31815	0.10117	0.28107	-0.070343	-0.29266	0.24857	0.087585	0.031433	-0.074158	0.3035	-0.34058	-0.44388	0.008545	0.007629	0.006866	0.025024	-0.002441	-0.003357	0.014801
48.942	0.023499	-0.31082	-0.054474	0.00351	0.005798	0.029297	-0.31754	0.008698	-0.014648	-0.72418	-0.016022	0.055847	-0.090332	-0.79132	0.030365	0.10239	-0.011597	-0.25909	0.10819	0.058441	0.43381	0.20294	0.11261	-0.34576	-0.20737	0.009918	0.12955	0.016937	0.044403	0.011749	-0.006256	-0.004425
48.943	0.018005	-0.30594	-0.098114	0.016022	-0.003967	0.016174	-0.31586	0.004272	-0.022583	-0.34302	-0.021667	-0.023956	-0.065765	-1.1975	-0.035553	0.10147	0.014038	-0.10178	-0.2536	-0.14587	0.2417	0.62073	-0.010681	-0.26474	-0.10529	0.005035	0.09552	0.015106	0.050812	0.16785	-0.004272	0.00351
48.944	0.017853	-0.28061	-0.10712	0.001526	-0.003815	-0.010223	-0.32181	0.007019	-0.025787	-0.020599	-0.017548	-0.20294	-0.009766	-0.94727	-0.04425	0.046539	0.015564	-0.057831	-0.29755	-0.18768	-0.038452	0.61722	-0.032349	-0.31967	-0.040131	0.008087	-0.049438	0.018158	0.066681	0.23086	-0.007935	-0.005341
48.945	0.021515	-0.28427	-0.12833	0.012207	-0.009613	0.009155	-0.32562	0.00473	-0.019989	0.12848	-0.004883	-0.12283	0.079956	-0.61066	-0.042419	0.066986	0.023041	0.010376	0.090027	-0.093689	0.051575	0.46524	-0.12253	-0.18509	0.074005	0.00412	-0.19791	0.025635	-0.002289	0.1503	-0.003052	-0.007935
48.946	0.021362	-0.31311	-0.15488	0.021057	-0.009003	0.02594	-0.32044	0.007324	-0.032806	-0.18372	-0.007172	-0.1294	0.092316	-0.32822	-0.015259	-0.098267	0.000153	-0.068512	0.7692	0.066833	0.23117	0.24689	-0.18249	0.024719	0.18799	0.007172	-0.19882	0.02243	0.095367	0.055237	0.010223	-0.005646
48.947	0.017242	-0.3186	-0.16525	0.003967	-0.013733	0.011444	-0.32257	0.008392	-0.036926	-0.28839	0.01236	-0.14893	0.019379	-0.39169	-0.002441	-0.041199	-0.033875	-0.13657	0.88043	0.22263	0.74799	0.051727	-0.02655	0.007477	0.21561	0.010529	-0.09201	0.019531	0.35217	0.036316	-0.001373	-0.005035
48.948	0.023804	-0.3125	-0.15854	-0.018005	-0.007629	0.004578	-0.32684	0.008545	-0.043182	-0.38971	0.00885	-0.14847	-0.021667	-0.40894	-0.004578	0.074768	-0.002136	-0.27741	0.74829	0.14587	0.61768	-0.030365	-0.037079	0.035553	0.18417	0.010223	-0.0737	0.02243	0.44144	0.056458	-0.00351	-0.003204
48.949	0.024567	-0.28671	-0.17807	-0.005493	0.009308	-0.036316	-0.33417	0.008698	-0.021362	-0.29892	0.004578	-0.15305	-0.009155	-0.215	0.010529	-0.049133	0.01297	-0.29083	0.84717	0.067444	0.40909	-0.074615	-0.092926	-0.085297	0.037231	0.009308	-0.040894	0.013885	0.21072	0.058441	-0.001831	-0.00061
48.95	0.020294	-0.25589	-0.23086	0.020752	0.014343	-0.033264	-0.33936	0.005341	-0.023041	-0.15503	0.009308	-0.15167	0.005035	0.045929	0.022278	-0.2153	0.05188	-0.33005	0.61508	0.055695	0.58914	-0.16617	-0.1091	-0.10147	-0.033112	0.010071	0.05661	0.014191	0.112	0.001526	-0.004883	0.001831
48.951	0.023804	-0.21576	-0.25482	0.008698	0.00412	-0.014954	-0.33295	0.009766	-0.027924	-0.025024	0.001678	0.002594	0.043945	0.46478	-0.006256	-0.092468	0.054626	-0.27649	0.080109	0.031433	0.62531	-0.13916	-0.1561	-0.11673	-0.018158	0.008087	0.1622	0.01358	-0.020294	-0.034485	-0.005798	0.009003
48.952	0.020294	-0.23453	-0.24597	0.015259	0.008087	-0.008545	-0.34424	0.006104	-0.021362	0.076447	0.004578	-0.19196	0.024872	0.6134	0.014801	0.19974	0.028076	-0.32822	0.051422	-0.009918	0.82855	-0.14465	-0.32791	-0.14191	0.29312	0.006256	0.16342	0.011597	-0.0354	-0.021057	-0.007324	0.012054
48.953	0.026245	-0.16266	-0.24277	0.023804	-0.002899	0.035858	-0.35233	0.006256	-0.032196	0.043182	0.002594	-0.22293	-0.008698	0.28809	-0.005341	0.024567	0.048523	-0.28564	0.37842	-0.067139	0.59433	-0.023346	-0.67825	0.010681	0.99777	0.007629	0.16785	0.009613	-0.058594	-0.012512	-0.006866	0.000763
48.954	0.025482	-0.12192	-0.23346	0.034943	-0.001678	0.051727	-0.37796	0.00351	-0.026703	-0.079193	0.00885	-0.2211	0.015106	0.17944	0.013733	-0.034332	0.098114	-0.26245	0.47287	-0.082092	0.024872	0.1091	-0.7753	0.034332	0.92545	0.005798	0.10422	0.011292	-0.17532	-0.023499	-0.004425	0.001221
48.955	0.025024	-0.093231	-0.26199	0.0177	0.004425	0.027618	-0.39825	-0.005188	-0.037079	-0.21057	0.015259	-0.18692	0.053101	0.045319	0.050049	0.015259	0.14725	-0.21942	0.42343	-0.16159	-0.28153	0.18555	-0.56534	0.033569	0.31677	0.003204	-0.017242	0.005188	-0.034027	-0.034637	-0.00473	0.002441
48.956	0.028381	-0.10162	-0.28351	0.008545	0.012665	-0.020447	-0.38376	0.00885	-0.028381	-0.2504	0.028534	-0.15823	-0.032959	0.16373	0.049286	-0.000763	0.13336	-0.12909	0.2832	-0.21774	-0.085449	0.22324	-0.28595	-0.096741	-0.14999	0	-0.05127	0.012207	0.16556	-0.036011	0.002747	0.001068
48.957	0.02533	-0.15457	-0.32196	-0.019989	0.017853	-0.077209	-0.37933	0.002747	-0.022888	-0.31509	0.016937	-0.15976	-0.11597	0.19165	0.039978	-0.053406	0.11246	0.017853	0.29999	-0.168	0.43701	0.2858	-0.26977	-0.33142	-0.40802	0.003662	0.009613	0.01358	-0.12192	-0.06958	-0.001068	0.002441
48.958	0.036316	-0.1619	-0.34668	-0.014496	0.039215	-0.075378	-0.37521	-0.001678	-0.031128	-0.23804	0.014343	-0.093536	-0.07309	0.18204	0.019531	-0.003815	0.05661	0.075836	0.22079	0.023041	1.0176	0.24979	-0.25833	-0.26855	-0.37842	0.006104	0.052795	0.00473	-0.41184	-0.044708	-0.004578	0.000153
48.959	0.031128	-0.18967	-0.3772	-0.00885	0.036163	-0.036621	-0.36865	0.006714	-0.027161	0.091858	-0.012665	-0.29785	-0.066376	0.4184	0.027924	0.005188	-0.034637	0.079498	0.040894	0.16098	0.74905	0.28564	-0.17792	-0.08728	-0.42419	-0.000916	0.018921	0.001221	-0.35599	0.001831	-0.006409	0.008392
48.96	0.02655	-0.2092	-0.40359	-0.008087	0.025024	0.014954	-0.37842	0.000763	-0.028992	0.97031	-0.016632	0.08728	-0.067291	0.17166	0.035248	0.20096	-0.075378	0.082245	-0.070953	0.22034	1.0136	0.27039	-0.042419	0.048523	-0.41962	-0.002899	0.06134	-0.000305	-0.14511	0.025482	-0.000916	-0.003052
48.961	0.024872	-0.20462	-0.44464	0.016785	0.007019	0.04715	-0.4007	-0.001068	-0.016327	0.7402	-0.010834	-0.57419	-0.11688	0.16068	0.013885	-0.056152	-0.012054	0.021057	0.10284	0.18616	0.78095	0.20813	-0.22507	0.053253	-0.24979	0.00061	0.061035	-0.003204	0.16449	-0.050354	-0.002289	-0.005035
48.962	0.026398	-0.23071	-0.46387	0.020447	0.014648	0.040588	-0.38284	-0.002136	-0.014191	0.55039	0.014954	0.33402	-0.030975	-0.20462	0.001373	0.1973	0.033264	0.048523	0.12711	0.18417	0.63309	0.23972	-0.57205	0.1178	-0.06546	0.002136	0.046082	-0.003052	0.13962	-0.082703	-0.003967	-0.010223
48.963	0.027924	-0.22827	-0.50629	0.007935	0.038147	-0.008392	-0.38452	0.00473	-0.028229	1.138	0.062561	-0.036469	-0.094757	-0.34378	-0.024109	-0.2594	0.020294	0.16678	0.22003	0.09903	0.51544	0.18906	-0.76202	0.33493	0.020294	0.006409	0.007782	0.001526	-0.093842	-0.062256	-0.005035	-0.006256
48.964	0.024719	-0.21637	-0.53787	0.00351	0.043793	-0.042877	-0.35355	0.00351	-0.043488	0.95535	0.026093	0.027008	-0.023956	0.39551	-0.027466	0.66681	0.007935	0.18204	0.12894	0.058899	0.45975	0.086975	-0.59311	0.28366	0.059052	-0.004883	0.007782	-0.000153	-0.074921	0.036621	-0.004578	-0.001526
